<svg xmlns="http://www.w3.org/2000/svg" width="174" height="26" fill="none"><path fill="#11142D" d="M46.027 23V5.12h3.12l6.696 9.096h-1.488l6.552-9.096h3.12V23h-3.288V8.84l1.272.312-6.792 9.048h-.384L48.21 9.152l1.08-.312V23h-3.264Zm27.542.288c-1.28 0-2.448-.296-3.504-.888a6.84 6.84 0 0 1-2.496-2.424c-.608-1.024-.912-2.192-.912-3.504 0-1.312.304-2.48.912-3.504a6.84 6.84 0 0 1 2.496-2.424c1.04-.592 2.208-.888 3.504-.888 1.28 0 2.44.296 3.48.888a6.655 6.655 0 0 1 2.472 2.424c.624 1.008.936 2.176.936 3.504 0 1.312-.312 2.48-.936 3.504a6.84 6.84 0 0 1-2.496 2.424c-1.04.592-2.192.888-3.456.888Zm0-2.88c.704 0 1.32-.168 1.848-.504.544-.336.968-.8 1.272-1.392.32-.608.48-1.288.48-2.04 0-.768-.16-1.44-.48-2.016a3.453 3.453 0 0 0-1.272-1.392c-.528-.352-1.144-.528-1.848-.528-.72 0-1.352.176-1.896.528-.544.336-.976.8-1.296 1.392-.304.576-.456 1.248-.456 2.016 0 .752.152 1.432.456 2.04.32.592.752 1.056 1.296 1.392.544.336 1.176.504 1.896.504Zm15.344 2.88c-1.264 0-2.392-.296-3.384-.888a6.59 6.59 0 0 1-2.352-2.472c-.576-1.04-.864-2.192-.864-3.456 0-1.28.288-2.432.864-3.456a6.641 6.641 0 0 1 2.352-2.448c1.008-.608 2.128-.912 3.36-.912.992 0 1.872.2 2.64.6a4.47 4.47 0 0 1 1.848 1.632l-.48.648V4.832h3.144V23h-2.976v-2.52l.336.624c-.448.704-1.072 1.248-1.872 1.632-.8.368-1.672.552-2.616.552Zm.336-2.88c.72 0 1.352-.168 1.896-.504.544-.336.968-.8 1.272-1.392.32-.592.48-1.272.48-2.04 0-.752-.16-1.424-.48-2.016a3.418 3.418 0 0 0-1.272-1.416c-.544-.336-1.176-.504-1.896-.504-.704 0-1.336.176-1.896.528-.56.336-1 .8-1.32 1.392-.304.576-.456 1.248-.456 2.016s.152 1.448.456 2.04c.32.592.76 1.056 1.32 1.392.56.336 1.192.504 1.896.504Zm15.909 2.88c-1.344 0-2.52-.304-3.528-.912a6.353 6.353 0 0 1-2.352-2.472c-.56-1.04-.84-2.192-.84-3.456 0-1.312.28-2.472.84-3.48a6.516 6.516 0 0 1 2.328-2.424c.992-.592 2.096-.888 3.312-.888 1.024 0 1.92.168 2.688.504.784.336 1.448.8 1.992 1.392.544.592.96 1.272 1.248 2.04.288.752.432 1.568.432 2.448 0 .224-.016.456-.048.696-.016.24-.056.448-.12.624h-10.08v-2.4h8.304l-1.488 1.128c.144-.736.104-1.392-.12-1.968a2.727 2.727 0 0 0-1.056-1.368c-.48-.336-1.064-.504-1.752-.504-.656 0-1.24.168-1.752.504-.512.32-.904.8-1.176 1.44-.256.624-.352 1.384-.288 2.28-.064.8.04 1.512.312 2.136.288.608.704 1.08 1.248 1.416.56.336 1.2.504 1.92.504s1.328-.152 1.824-.456a3.262 3.262 0 0 0 1.2-1.224l2.544 1.248a4.446 4.446 0 0 1-1.2 1.656 5.972 5.972 0 0 1-1.944 1.128c-.736.272-1.552.408-2.448.408Zm8.503-.288V9.944h2.952v2.904l-.24-.432c.304-.976.776-1.656 1.416-2.04.656-.384 1.44-.576 2.352-.576h.768v2.784h-1.128c-.896 0-1.616.28-2.16.84-.544.544-.816 1.312-.816 2.304V23h-3.144Zm8.977 0V9.944h2.952v2.568l-.24-.456c.304-.784.8-1.376 1.488-1.776.704-.416 1.52-.624 2.448-.624.96 0 1.808.208 2.544.624.752.416 1.336 1 1.752 1.752.416.736.624 1.592.624 2.568V23h-3.144v-7.656c0-.576-.112-1.072-.336-1.488a2.353 2.353 0 0 0-.936-.96c-.384-.24-.84-.36-1.368-.36-.512 0-.968.12-1.368.36-.4.224-.712.544-.936.96-.224.416-.336.912-.336 1.488V23h-3.144Zm14.226 0V9.944h3.144V23h-3.144Zm0-14.52V5.12h3.144v3.36h-3.144ZM141.783 23v-2.544l7.584-8.784.48 1.08h-7.728V9.944h10.512v2.568l-7.44 8.784-.48-1.08h7.968V23h-10.896Zm18.875.288c-1.344 0-2.52-.304-3.528-.912a6.353 6.353 0 0 1-2.352-2.472c-.56-1.04-.84-2.192-.84-3.456 0-1.312.28-2.472.84-3.48a6.516 6.516 0 0 1 2.328-2.424c.992-.592 2.096-.888 3.312-.888 1.024 0 1.92.168 2.688.504.784.336 1.448.8 1.992 1.392.544.592.96 1.272 1.248 2.04.288.752.432 1.568.432 2.448 0 .224-.016.456-.048.696-.016.24-.056.448-.12.624h-10.08v-2.4h8.304l-1.488 1.128c.144-.736.104-1.392-.12-1.968a2.727 2.727 0 0 0-1.056-1.368c-.48-.336-1.064-.504-1.752-.504-.656 0-1.24.168-1.752.504-.512.32-.904.8-1.176 1.44-.256.624-.352 1.384-.288 2.28-.064.8.04 1.512.312 2.136.288.608.704 1.08 1.248 1.416.56.336 1.2.504 1.92.504s1.328-.152 1.824-.456a3.262 3.262 0 0 0 1.2-1.224l2.544 1.248a4.446 4.446 0 0 1-1.2 1.656 5.972 5.972 0 0 1-1.944 1.128c-.736.272-1.552.408-2.448.408Z"></path><path fill="#615DFF" d="M20.137 26c2.761 0 5.047-2.258 4.536-4.971a26.67 26.67 0 0 0-1.45-4.979 26.078 26.078 0 0 0-5.448-8.435A25.1 25.1 0 0 0 9.618 1.98 24.523 24.523 0 0 0 4.965.512C2.262-.05 0 2.24 0 5v16a5 5 0 0 0 5 5h15.137Z"></path><path fill="#3DD9EB" d="M13.701 26c-2.761 0-5.047-2.258-4.536-4.971.32-1.702.805-3.37 1.45-4.979a26.078 26.078 0 0 1 5.449-8.435 25.1 25.1 0 0 1 8.155-5.636A24.524 24.524 0 0 1 28.873.512C31.577-.05 33.838 2.24 33.838 5v16a5 5 0 0 1-5 5H13.701Z" style="mix-blend-mode: multiply;"></path></svg>